<?xml version="1.0" encoding="utf-8"?>
<!-- Generator: Adobe Illustrator 16.0.4, SVG Export Plug-In . SVG Version: 6.00 Build 0)  -->
<!DOCTYPE svg PUBLIC "-//W3C//DTD SVG 1.1//EN" "http://www.w3.org/Graphics/SVG/1.1/DTD/svg11.dtd">
<svg version="1.1" xmlns="http://www.w3.org/2000/svg" xmlns:xlink="http://www.w3.org/1999/xlink" x="0px" y="0px" width="400px"
	 height="300px" viewBox="56 106 400 300" style="enable-background:new 56 106 400 300;" xml:space="preserve">
<g id="blumen_x5F_3">
	<g>
		<g>
			<path d="M416,146v220H96V146H416 M456,106H56v300h400V106L456,106z"/>
		</g>
		<path d="M230.944,337.014c-25.542-4.337-44.988-26.426-44.988-53.041v-42.122l44.988,44.519V337.014z"/>
		<path d="M264.648,302.605v-46.039c45.2-8.428,46.881-57.158,33.13-82.368l-22.6,24.689l-19.487-24.688l-18.22,24.689
			l-23.25-24.689c-13.376,24.519-12.38,73.882,33.129,82.367v81.234h24.517c29.92,0,54.175-24.098,54.175-53.828v-42.122
			L264.648,302.605z"/>
	</g>
</g>
<g id="Hilflinien">
</g>
</svg>
